<svg width="32" height="32" viewBox="0 0 32 32" xmlns="http://www.w3.org/2000/svg">
  <defs>
    <linearGradient id="gradient" x1="0%" y1="0%" x2="100%" y2="100%">
      <stop offset="0%" style="stop-color:#3b82f6;stop-opacity:1" />
      <stop offset="100%" style="stop-color:#1d4ed8;stop-opacity:1" />
    </linearGradient>
  </defs>
  
  <!-- Background circle -->
  <circle cx="16" cy="16" r="15" fill="url(#gradient)" stroke="#1e40af" stroke-width="1"/>
  
  <!-- Letter S -->
  <path d="M 12 10 
           C 12 8.5 13.5 7 16 7
           C 18.5 7 20 8.5 20 10
           C 20 11.5 18.5 13 16 13
           L 14 13
           C 11.5 13 10 14.5 10 16
           C 10 17.5 11.5 19 14 19
           L 16 19
           C 18.5 19 20 20.5 20 22
           C 20 23.5 18.5 25 16 25
           C 13.5 25 12 23.5 12 22" 
        fill="none" 
        stroke="white" 
        stroke-width="2.5" 
        stroke-linecap="round"/>
</svg>
